<svg xmlns="http://www.w3.org/2000/svg" viewBox="0 0 32 32" fill="none" stroke="#2563eb" stroke-width="2" stroke-linecap="round" stroke-linejoin="round" role="img" aria-label="SnowSignal">
  <!-- Signal / broadcast waves -->
  <path d="M10.5 8.4 Q16 2.8 21.5 8.4" opacity="0.5"/>
  <path d="M13 9 Q16 5.9 19 9" opacity="0.85"/>
  <!-- Snowflake -->
  <line x1="16" y1="12" x2="16" y2="28"/>
  <line x1="9" y1="15.6" x2="23" y2="24.4"/>
  <line x1="23" y1="15.6" x2="9" y2="24.4"/>
  <path d="M16 16 l-2.4 -1.6 M16 16 l2.4 -1.6"/>
  <path d="M16 24 l-2.4 1.6 M16 24 l2.4 1.6"/>
  <path d="M11.6 17.4 l-2.8 -0.2 M11.6 17.4 l-0.2 2.8"/>
  <path d="M20.4 22.6 l2.8 0.2 M20.4 22.6 l0.2 -2.8"/>
  <path d="M20.4 17.4 l0.2 -2.8 M20.4 17.4 l2.8 0.2"/>
  <path d="M11.6 22.6 l-0.2 2.8 M11.6 22.6 l-2.8 -0.2"/>
</svg>
